<svg viewBox="0 0 40 40" xml:space="preserve" xmlns="http://www.w3.org/2000/svg"><path d="M20 40C9 40 0 31 0 20S9 0 20 0c4.5 0 8.7 1.5 12.3 4.2.4.3.5 1 .2 1.4-.3.4-1 .5-1.4.2C27.9 3.3 24 2 20 2 10.1 2 2 10.1 2 20s8.1 18 18 18 18-8.1 18-18c0-3.2-.9-6.4-2.5-9.2-.3-.5-.1-1.1.3-1.4.5-.3 1.1-.1 1.4.3C39 12.9 40 16.4 40 20c0 11-9 20-20 20z" fill="#ffffff" class="fill-000000"></path><path d="M30.5 20c0 .6-.4 1-1 1-.5 0-1-.4-1-1 0-4.7-3.8-8.6-8.5-8.6s-8.5 3.8-8.5 8.6c0 4.7 3.8 8.6 8.5 8.6l-1.7-1.7c-.4-.4-.4-1 0-1.4.4-.4 1-.4 1.4 0l3.1 3.1.2.1.2.2c.2.2.3.4.3.7 0 .3-.1.5-.3.7l-3.4 3.4c-.3.2-.6.3-.8.3s-.5-.1-.7-.3c-.4-.4-.4-1 0-1.4l1.7-1.7c-5.8 0-10.5-4.7-10.5-10.6S14.2 9.4 20 9.4 30.5 14.2 30.5 20z" fill="#ffffff" class="fill-000000"></path></svg>